# xmcd CD database file
#
# Track frame offsets:
#	150
#	24595
#	44297
#
# Disc length: 913 seconds
#
# Revision: 0
# Processed by: cddbd v1.5.1PL0 Copyright (c) Steve Scherf et al.
# Submitted via: CDex 1.51
#
DISCID=1c038f03
DTITLE=坂本サトル - 夜空に咲いた花
DYEAR=2004
DGENRE=JPop
TTITLE0=夜空に咲いた花
TTITLE1=霧雨（2004年気分）
TTITLE2=夜空に咲いた花 (Instrumental)
EXTD=YEAR: 2004
EXTT0=
EXTT1=
EXTT2=
PLAYORDER=
